<svg xmlns="http://www.w3.org/2000/svg" viewBox="0 0 500 500"><defs><style>.cls-1{fill:none;}.cls-2,.cls-3{fill:#2e8a2e;}.cls-3{fill-rule:evenodd;}</style></defs><rect class="cls-1" x="160.24" y="118.08" width="37.19" height="37.19"/><path class="cls-2" d="M67.07,88.74H432.93a20.4,20.4,0,0,1,20.36,20.36V390.9a20.4,20.4,0,0,1-20.36,20.36H67.07A20.4,20.4,0,0,1,46.71,390.9V109.1A20.4,20.4,0,0,1,67.07,88.74Zm365.86,12.71H67.07a7.7,7.7,0,0,0-7.66,7.65V390.9a7.7,7.7,0,0,0,7.66,7.65H432.93a7.7,7.7,0,0,0,7.66-7.65V109.1a7.7,7.7,0,0,0-7.66-7.65Z"/><polygon class="cls-3" points="85.51 123.89 102.64 123.89 102.64 376.11 85.51 376.11 85.51 123.89"/><polygon class="cls-3" points="117.42 123.89 146.23 123.89 146.23 376.11 117.42 376.11 117.42 123.89"/><polygon class="cls-3" points="156.35 123.89 165.78 123.89 165.78 376.11 156.35 376.11 156.35 123.89"/><polygon class="cls-3" points="179.99 123.89 202.66 123.89 202.66 376.11 179.99 376.11 179.99 123.89"/><polygon class="cls-3" points="334.22 123.89 317.09 123.89 317.09 376.11 334.22 376.11 334.22 123.89"/><polygon class="cls-3" points="302.3 123.89 273.5 123.89 273.5 376.11 302.3 376.11 302.3 123.89"/><polygon class="cls-3" points="263.38 123.89 253.94 123.89 253.94 376.11 263.38 376.11 263.38 123.89"/><polygon class="cls-3" points="239.73 123.89 217.06 123.89 217.06 376.11 239.73 376.11 239.73 123.89"/><polygon class="cls-3" points="342.78 123.89 351.34 123.89 351.34 376.11 342.78 376.11 342.78 123.89"/><polygon class="cls-3" points="366.13 123.89 394.93 123.89 394.93 376.11 366.13 376.11 366.13 123.89"/><polygon class="cls-3" points="405.05 123.89 414.49 123.89 414.49 376.11 405.05 376.11 405.05 123.89"/></svg>