<svg id="Layer_1" data-name="Layer 1" xmlns="http://www.w3.org/2000/svg" viewBox="0 0 500 500"><defs><style>.cls-1{fill:#2e8a2e;}</style></defs><polygon class="cls-1" points="290.83 453.7 290.83 355.05 335.13 355.05 250 256.67 164.87 355.05 209.17 355.05 209.17 453.7 290.83 453.7"/><path class="cls-1" d="M370.86,135.92h-10V60.16a5.08,5.08,0,0,1,5.15-5,4.43,4.43,0,1,0,0-8.85H298.34a4.43,4.43,0,1,0,0,8.85,5.08,5.08,0,0,1,5.14,5v75.76H278.71V60.16a5.07,5.07,0,0,1,5.13-5,4.43,4.43,0,1,0,0-8.85H216.16a4.43,4.43,0,1,0,0,8.85,5.07,5.07,0,0,1,5.14,5v75.76H196.53V60.16a5.07,5.07,0,0,1,5.13-5,4.43,4.43,0,1,0,0-8.85H134a4.43,4.43,0,1,0,0,8.85,5.06,5.06,0,0,1,5.12,5v75.76h-10a18.82,18.82,0,0,0-19,18.57V258.25a18.82,18.82,0,0,0,19,18.57h.32v.29h9.06v-.29h74.07V268H129.14a9.86,9.86,0,0,1-10-9.73V154.49a9.86,9.86,0,0,1,10-9.73h10v80.48c0,15.44,12.89,28,28.72,28s28.7-12.56,28.7-28V144.76H221.3v80.48c0,15.44,12.87,28,28.71,28s28.7-12.56,28.7-28V144.76h24.77v80.48c0,15.44,12.88,28,28.7,28s28.7-12.56,28.7-28V144.76h10a9.86,9.86,0,0,1,10,9.73V258.25a9.86,9.86,0,0,1-10,9.73h-80.7v8.84h71.33v.29h9.07v-.29h.3a18.81,18.81,0,0,0,19-18.57V154.49A18.81,18.81,0,0,0,370.86,135.92ZM188.42,88.46h-1.21v96.65c.55,2.81-1,6.11-4.72,6.11H153.77a4.59,4.59,0,0,1-3.69-1.64,5,5,0,0,1-.84-.94,4.73,4.73,0,0,1-1-3.08V88.46h-4.8a26.84,26.84,0,0,1,4.77-.22V60.16a13.46,13.46,0,0,0-1-5h41.2a13.65,13.65,0,0,0-.95,5V88.44Zm81,.13v98.75c0,3.69-3.27,5.26-6.07,4.72H235.42a5,5,0,0,1-5-5V88.59H227.5a13.06,13.06,0,0,1,2.86-.2V60.16a13.27,13.27,0,0,0-1-5h41.22a13.46,13.46,0,0,0-1,5V88.55l2.88,0Zm82.5.13v98.63c0,3.7-3.3,5.27-6.11,4.71H319a5.56,5.56,0,0,1-3.88-.62l-.21-.13-.14-.09-.26-.21-.1-.08a2.39,2.39,0,0,1-.23-.22l-.11-.12a2,2,0,0,1-.19-.22l-.11-.14-.2-.29a.16.16,0,0,0,0-.07,5.59,5.59,0,0,1-.64-3.91V88.72h-3.25a13,13,0,0,1,2.88-.19V60.16a13.46,13.46,0,0,0-1-5h41.21a13.26,13.26,0,0,0-1,5V82.44a6.43,6.43,0,0,1,.09,1v5.23l2.76,0Z"/></svg>