<svg id="Layer_1" data-name="Layer 1" xmlns="http://www.w3.org/2000/svg" viewBox="0 0 500 500"><defs><style>.cls-1{fill:#2e8a2e;}</style></defs><path class="cls-1" d="M290.83,355.33V256.67H209.17v3.41a5.42,5.42,0,0,1,.16,1.32v22.9a5.55,5.55,0,0,1-.16,1.32v69.71h-44.3L250,453.7l85.13-98.37Z"/><path class="cls-1" d="M370.86,135.92h-10V60.16a5.07,5.07,0,0,1,5.14-5,4.43,4.43,0,1,0,0-8.85H298.34a4.43,4.43,0,1,0,0,8.85,5.07,5.07,0,0,1,5.14,5v75.76H278.71V60.16a5.07,5.07,0,0,1,5.13-5,4.43,4.43,0,1,0,0-8.85H216.17a4.43,4.43,0,1,0,0,8.85,5.07,5.07,0,0,1,5.13,5v75.76H196.53V60.16a5.07,5.07,0,0,1,5.14-5,4.43,4.43,0,1,0,0-8.85H134a4.43,4.43,0,1,0,0,8.85,5.06,5.06,0,0,1,5.12,5v75.76h-10a18.84,18.84,0,0,0-19,18.57V258.25a18.84,18.84,0,0,0,19,18.57h.31v.29h9.06v-.29H199V268H129.15a9.86,9.86,0,0,1-10-9.73V154.49a9.86,9.86,0,0,1,10-9.73h10v80.48c0,15.44,12.89,28,28.72,28s28.7-12.56,28.7-28V144.76H221.3v80.48c0,15.44,12.88,28,28.71,28s28.7-12.56,28.7-28V144.76h24.77v80.48c0,15.44,12.88,28,28.71,28s28.7-12.56,28.7-28V144.76h10a9.86,9.86,0,0,1,10,9.73V258.25a9.86,9.86,0,0,1-10,9.73H301.69v8.84h59.8v.29h9.07v-.29h.3a18.82,18.82,0,0,0,19-18.57V154.49A18.82,18.82,0,0,0,370.86,135.92ZM188.43,88.46h-45a26.74,26.74,0,0,1,4.77-.22V60.16a13.46,13.46,0,0,0-1-5h41.21a13.46,13.46,0,0,0-1,5V88.44Zm39.07.13a13.06,13.06,0,0,1,2.86-.2V60.16a13.46,13.46,0,0,0-1-5h41.21a13.46,13.46,0,0,0-1,5V88.55l2.87,0Zm82.18.13a12.82,12.82,0,0,1,2.87-.19V60.16a13.46,13.46,0,0,0-1-5h41.21a13.46,13.46,0,0,0-1,5V88.68l2.86,0Z"/></svg>