<svg id="Layer_1" data-name="Layer 1" xmlns="http://www.w3.org/2000/svg" viewBox="0 0 500 500"><defs><style>.cls-1{fill:#2e8a2e;}</style></defs><path class="cls-1" d="M370.85,301.16h-10V225.4a5.06,5.06,0,0,1,5.13-5,4.43,4.43,0,1,0,0-8.85H298.35a4.43,4.43,0,1,0,0,8.85,5.07,5.07,0,0,1,5.12,5v75.76H278.7V225.4a5.08,5.08,0,0,1,5.15-5,4.43,4.43,0,1,0,0-8.85H216.16a4.43,4.43,0,1,0,0,8.85,5.07,5.07,0,0,1,5.13,5v75.76H196.52V225.4a5.08,5.08,0,0,1,5.14-5,4.43,4.43,0,1,0,0-8.85H134a4.43,4.43,0,1,0,0,8.85,5.07,5.07,0,0,1,5.14,5v75.76h-10a18.83,18.83,0,0,0-19,18.57V423.49a18.83,18.83,0,0,0,19,18.57h.31v.29h9.06v-.29h223v.29h9.07v-.29h.3a18.83,18.83,0,0,0,19-18.57V319.73A18.83,18.83,0,0,0,370.85,301.16Zm-59.27-80.77h41.2a13.45,13.45,0,0,0-.95,5v28.52l2.85,0h-45a12.82,12.82,0,0,1,2.87-.19V225.4A13.66,13.66,0,0,0,311.58,220.39Zm-82.19,0H270.6a13.46,13.46,0,0,0-1,5v28.39l2.87,0h-45a13.26,13.26,0,0,1,2.88-.2V225.4A13.47,13.47,0,0,0,229.39,220.39Zm-82.18,0h41.21a13.46,13.46,0,0,0-1,5v28.28l1,0h-45a26.74,26.74,0,0,1,4.77-.22V225.4A13.27,13.27,0,0,0,147.21,220.39Zm233.62,203.1a9.87,9.87,0,0,1-10,9.73H129.14a9.86,9.86,0,0,1-10-9.73V319.73a9.86,9.86,0,0,1,10-9.73h10v80.48c0,15.44,12.87,28,28.71,28s28.69-12.56,28.69-28V310h24.77v80.48c0,15.44,12.88,28,28.71,28s28.7-12.56,28.7-28V310h24.77v80.48c0,15.44,12.88,28,28.71,28s28.71-12.56,28.71-28V310h10a9.87,9.87,0,0,1,10,9.73Z"/><path class="cls-1" d="M382.14,155l-50.48,50.47a8.4,8.4,0,0,1-11.88,0L269.3,155a8.42,8.42,0,0,1,5.94-14.38h24.5v-1.07a50.46,50.46,0,0,0-99.65,1.05h-.57v0h25.24a8.44,8.44,0,0,1,6,14.38l-50.47,50.47a8.41,8.41,0,0,1-11.89,0L117.88,155a8.42,8.42,0,0,1,5.94-14.38h25.24v-.25h.33a100.9,100.9,0,0,1,201.16-.9c0,.15,0,.27,0,.41v.72H351v0h25.24A8.44,8.44,0,0,1,382.14,155Z"/><path class="cls-1" d="M321.49,149.87v.35l0-.35Z"/></svg>